<?xml version="1.0" standalone="no"?>
<!DOCTYPE svg PUBLIC "-//W3C//DTD SVG 20010904//EN"
 "http://www.w3.org/TR/2001/REC-SVG-20010904/DTD/svg10.dtd">
<svg version="1.0" xmlns="http://www.w3.org/2000/svg"
 width="820.000000pt" height="725.000000pt" viewBox="0 0 820.000000 725.000000"
 preserveAspectRatio="xMidYMid meet">
<metadata>
Created by potrace 1.16, written by Peter Selinger 2001-2019
</metadata>
<g transform="translate(0.000000,725.000000) scale(0.100000,-0.100000)"
fill="#000000" stroke="none">
<path d="M5685 5557 c-33 -27 -91 -80 -129 -118 -64 -62 -69 -69 -55 -86 13
-17 13 -17 -5 -3 -13 10 -20 11 -23 4 -2 -7 -21 -29 -41 -51 -40 -43 -93 -107
-132 -160 -18 -25 -30 -33 -45 -30 -151 37 -221 47 -340 47 -202 0 -356 -35
-528 -121 -233 -116 -453 -347 -546 -574 -53 -128 -55 -124 42 -71 488 266
1112 240 1565 -66 40 -27 77 -46 82 -43 6 4 9 2 8 -3 -2 -5 33 -41 77 -78 44
-38 88 -79 98 -91 10 -13 24 -20 30 -16 7 3 9 3 5 -2 -10 -10 31 -67 43 -59 5
3 8 1 7 -4 -5 -15 42 -73 53 -66 6 3 9 0 7 -8 -2 -8 15 -40 36 -71 29 -42 42
-54 49 -45 6 9 7 8 3 -5 -3 -10 7 -37 24 -66 39 -64 98 -192 116 -252 14 -47
28 -62 36 -38 3 8 10 6 21 -5 9 -10 15 -22 12 -27 -4 -5 1 -6 10 -2 11 4 13 8
5 13 -6 4 -10 13 -8 21 2 10 -6 13 -30 12 -18 -1 -30 2 -27 6 2 5 -5 27 -16
51 -11 23 -18 48 -15 56 3 9 1 12 -4 9 -14 -9 -12 8 3 25 10 12 9 12 -4 2 -14
-11 -18 -7 -30 20 -8 18 -12 39 -11 47 2 8 -1 10 -10 6 -10 -6 -11 -5 0 6 13
14 17 53 4 45 -5 -3 -9 1 -9 9 0 8 4 12 8 9 5 -2 5 19 2 48 -3 29 -10 55 -15
56 -4 2 -8 21 -8 43 0 21 -4 39 -10 39 -6 0 -10 33 -10 80 0 60 -3 80 -13 80
-11 0 -15 29 -20 117 -4 68 -11 119 -18 123 -7 5 -5 9 5 13 9 4 13 13 10 22
-5 11 5 8 37 -10 24 -14 49 -25 54 -25 9 0 -84 57 -102 63 -21 6 -123 132
-151 185 -18 34 -37 64 -42 67 -6 4 -10 12 -10 18 0 7 4 6 11 -3 9 -12 9 -11
3 5 -13 37 -16 217 -4 292 13 82 45 183 83 262 20 43 21 49 6 35 -11 -9 -19
-25 -19 -34 0 -9 -10 -28 -22 -41 -18 -21 -20 -21 -14 -4 9 24 9 23 6 55 -1
20 -3 21 -8 8 -4 -10 -8 15 -9 54 -1 39 -6 74 -11 77 -12 8 -22 101 -12 101 5
0 11 -6 13 -12 3 -7 6 -8 6 -3 0 6 -3 16 -8 24 -8 12 -13 12 -35 -2 -32 -21
-37 -21 -30 1 5 16 5 16 -9 0 -8 -10 -17 -15 -20 -12 -7 8 18 34 32 34 6 0 11
-5 11 -12 0 -6 9 -3 20 7 11 10 20 23 20 29 0 6 -7 2 -15 -8 -8 -11 -18 -16
-22 -12 -10 9 40 53 55 48 16 -5 16 4 0 11 -7 2 -40 -18 -73 -46z"/>
<path d="M4715 4266 c-5 -3 -36 -7 -67 -11 -32 -4 -58 -9 -58 -13 0 -4 23 -20
51 -36 29 -16 95 -61 148 -101 317 -239 531 -602 590 -1002 14 -93 14 -334 0
-426 -45 -300 -186 -615 -371 -827 l-65 -75 22 -55 c11 -30 36 -106 55 -167
31 -101 37 -112 55 -107 56 17 221 102 310 161 121 80 327 282 400 392 l49 74
-19 31 c-105 178 -113 349 -22 520 48 91 129 165 239 220 127 62 220 86 355
93 209 11 357 -30 557 -151 33 -20 70 -36 83 -36 60 0 123 64 123 126 0 66
-32 92 -236 195 -263 133 -536 220 -809 259 -129 18 -123 16 -135 63 -106 417
-459 759 -880 852 -68 15 -351 31 -375 21z"/>
<path d="M4877 3378 c-27 -609 -407 -1130 -989 -1354 -230 -89 -560 -126 -798
-89 -52 8 -109 19 -127 24 -30 9 -34 7 -70 -37 -20 -26 -75 -86 -121 -133
l-83 -87 43 -34 c217 -175 497 -287 795 -318 90 -10 99 -9 111 7 7 10 32 47
55 83 50 76 138 147 224 181 50 21 75 24 183 23 106 0 133 -3 179 -22 195 -82
381 -277 462 -487 45 -116 61 -206 61 -340 0 -134 10 -165 58 -190 16 -8 48
-15 71 -15 34 0 47 6 76 35 l36 36 -6 192 c-10 329 -71 619 -193 916 l-35 84
69 71 c203 209 315 492 314 797 0 183 -31 325 -106 494 -31 68 -142 239 -178
273 l-25 23 -6 -133z"/>
<path d="M4360 2857 c-50 -34 -223 -111 -305 -137 -201 -62 -465 -86 -658 -60
-117 15 -296 61 -372 94 -64 29 -79 32 -52 12 16 -12 16 -14 2 -20 -9 -3 -13
-2 -10 4 3 6 -1 13 -9 16 -9 3 -14 10 -11 14 9 15 -21 18 -50 4 -26 -11 -27
-13 -5 -8 l25 5 -3 -86 c-2 -50 0 -85 6 -85 6 0 13 -36 17 -80 4 -44 11 -80
16 -80 5 0 9 -18 9 -40 0 -30 4 -40 16 -40 14 0 15 -10 9 -80 -6 -71 -5 -80
10 -80 13 0 16 -8 13 -42 l-3 -43 -40 2 -40 2 35 -14 c41 -16 63 -18 56 -6 -6
9 73 25 82 16 3 -3 -4 -5 -14 -5 -11 0 -29 -6 -39 -14 -16 -12 -10 -14 59 -25
180 -26 392 -9 555 46 97 32 234 101 226 113 -3 5 0 7 8 4 20 -7 160 101 240
185 71 76 148 184 192 271 26 52 78 180 72 180 -1 0 -18 -11 -37 -23z"/>
<path d="M6107 2769 c-77 -26 -122 -56 -175 -113 -143 -155 -141 -391 4 -547
81 -86 178 -129 294 -129 201 0 365 141 400 342 27 155 -56 332 -195 413 -93
55 -228 69 -328 34z"/>
<path d="M2181 2706 c-10 -12 -9 -13 9 -9 16 4 19 2 14 -11 -4 -10 0 -18 10
-22 17 -7 22 -34 6 -34 -17 0 -11 -40 9 -67 11 -13 18 -30 15 -38 -3 -7 -1
-22 5 -33 19 -36 32 -144 18 -161 -10 -12 -9 -13 2 -6 11 6 13 3 9 -13 -4 -12
-2 -25 3 -28 5 -3 9 -15 9 -27 0 -14 3 -18 8 -10 5 8 13 9 22 3 13 -8 13 -11
1 -22 -11 -11 -13 -11 -6 1 5 9 4 12 -2 8 -6 -4 -13 -20 -16 -37 -8 -39 -8
-40 0 -37 5 1 6 8 5 16 -2 7 1 10 7 6 7 -4 8 0 4 11 -4 11 -2 15 4 11 14 -9
37 48 27 64 -5 8 -3 9 6 4 10 -6 12 0 7 31 -5 29 -4 35 4 24 8 -11 9 9 6 70
-6 92 -23 154 -40 143 -6 -3 -7 -1 -3 5 8 14 -20 72 -35 72 -6 0 -7 -5 -3 -12
5 -7 3 -8 -6 -3 -10 6 -12 3 -8 -11 3 -11 -1 -25 -9 -33 -12 -10 -13 -8 -7 16
10 44 10 48 -3 46 -18 -4 -16 2 4 18 10 8 14 9 10 2 -4 -6 -3 -14 2 -17 5 -4
12 -2 15 2 3 5 -9 22 -27 37 -69 60 -63 57 -76 41z"/>
<path d="M3973 1539 c-185 -59 -306 -257 -273 -448 23 -134 104 -242 227 -303
64 -31 74 -33 173 -33 98 0 110 2 170 32 250 123 312 442 125 642 -110 118
-268 159 -422 110z"/>
</g>
</svg>
