<?xml version="1.0" standalone="no"?>
<!DOCTYPE svg PUBLIC "-//W3C//DTD SVG 20010904//EN"
 "http://www.w3.org/TR/2001/REC-SVG-20010904/DTD/svg10.dtd">
<svg version="1.0" xmlns="http://www.w3.org/2000/svg"
 width="500.000000pt" height="500.000000pt" viewBox="0 0 500.000000 500.000000"
 preserveAspectRatio="xMidYMid meet">
<metadata>
Created by potrace 1.16, written by Peter Selinger 2001-2019
</metadata>
<g transform="translate(0.000000,500.000000) scale(0.100000,-0.100000)"
fill="#000000" stroke="none">
<path d="M312 2830 c-62 -28 -72 -59 -72 -225 l0 -135 28 0 c15 0 37 3 50 6
21 6 22 10 22 140 0 88 -4 134 -11 134 -5 0 -7 5 -4 10 4 6 61 10 138 10 168
0 177 3 177 46 l0 34 -142 0 c-120 0 -150 -4 -186 -20z"/>
<path d="M822 2843 c-19 -4 -23 -10 -20 -36 l3 -32 140 -3 c117 -2 142 -5 153
-19 8 -12 12 -59 12 -150 l0 -133 28 0 c15 0 32 4 38 8 14 8 22 296 9 325 -16
38 -57 47 -202 46 -76 -1 -148 -4 -161 -6z"/>
<path d="M1318 2843 c-28 -7 -23 -61 6 -84 27 -21 46 -73 72 -194 19 -90 45
-149 70 -159 30 -11 94 13 112 44 10 15 31 88 47 161 28 132 46 168 83 169 7
0 12 14 12 35 0 41 -14 44 -76 16 -64 -29 -88 -79 -129 -273 -20 -95 -41 -106
-31 -17 11 112 -36 252 -97 289 -32 20 -38 21 -69 13z"/>
<path d="M1898 2843 c-28 -7 -23 -61 6 -84 27 -21 46 -73 72 -194 19 -90 45
-149 70 -159 30 -11 94 13 112 44 10 15 31 88 47 161 28 132 46 168 83 169 7
0 12 14 12 35 0 41 -14 44 -76 16 -64 -29 -88 -79 -129 -273 -20 -95 -41 -106
-31 -17 11 112 -36 252 -97 289 -32 20 -38 21 -69 13z"/>
<path d="M2408 2843 c-16 -4 -18 -22 -18 -187 0 -148 3 -186 16 -204 30 -43
64 -52 197 -52 152 0 187 6 187 31 0 11 -6 19 -14 19 -8 0 -16 6 -18 13 -3 8
-40 13 -124 15 -65 2 -125 8 -131 14 -10 8 -13 57 -13 184 l0 174 -32 -1 c-18
-1 -41 -3 -50 -6z"/>
<path d="M2778 2843 c-16 -4 -18 -22 -18 -189 l0 -184 24 0 c55 0 56 2 56 146
0 83 4 134 10 134 6 0 10 23 10 50 0 50 0 50 -32 49 -18 -1 -41 -3 -50 -6z"/>
<path d="M2980 2840 c0 -5 -7 -7 -15 -4 -11 5 -15 -1 -15 -26 0 -22 8 -38 29
-56 18 -15 56 -77 95 -157 35 -73 75 -142 88 -155 27 -24 88 -47 88 -32 0 5 7
7 15 4 10 -4 15 0 15 15 0 12 -4 21 -10 21 -17 0 -50 34 -50 51 0 23 -107 248
-136 287 -34 44 -104 79 -104 52z"/>
<path d="M3268 2843 c-16 -4 -18 -22 -18 -189 l0 -184 28 0 c15 0 37 3 50 7
l24 6 -4 183 -3 184 -30 -1 c-16 -1 -38 -3 -47 -6z"/>
<path d="M3388 2843 c-13 -3 -18 -15 -18 -39 l0 -34 198 0 c108 0 202 4 208 8
6 4 15 22 19 40 l7 32 -199 -1 c-109 -1 -206 -3 -215 -6z"/>
<path d="M3848 2843 c-13 -3 -18 -15 -18 -39 l0 -34 78 0 c47 0 83 -5 90 -12
8 -8 12 -64 12 -185 l0 -173 28 0 c15 0 37 3 50 6 22 6 22 9 22 175 0 142 -2
169 -15 169 -20 0 -51 60 -36 70 35 21 -144 41 -211 23z"/>
<path d="M4098 2843 c-13 -3 -18 -15 -18 -39 l0 -34 84 0 c97 0 116 5 116 31
0 10 5 19 10 19 6 0 10 7 10 15 0 12 -16 15 -92 14 -51 -1 -101 -3 -110 -6z"/>
<path d="M4338 2843 c-16 -4 -18 -18 -18 -111 0 -171 23 -192 216 -192 109 0
124 6 124 52 l0 28 -108 0 c-71 0 -112 4 -120 12 -8 8 -12 48 -12 115 l0 103
-32 -1 c-18 -1 -41 -3 -50 -6z"/>
<path d="M4708 2843 c-16 -4 -18 -21 -18 -178 0 -121 -4 -176 -12 -181 -6 -4
-68 -6 -137 -5 -151 3 -181 -5 -181 -50 l0 -31 168 4 c259 5 262 9 262 273 l0
175 -32 -1 c-18 -1 -41 -3 -50 -6z"/>
<path d="M1708 2773 c-16 -4 -18 -22 -18 -189 l0 -184 24 0 c56 0 56 -1 56
180 0 102 4 171 10 175 32 20 -19 32 -72 18z"/>
<path d="M2288 2773 c-16 -4 -18 -22 -18 -190 l0 -186 47 7 c25 3 48 8 50 10
3 2 0 21 -6 43 -6 21 -11 102 -11 181 0 141 0 142 -22 141 -13 -1 -31 -3 -40
-6z"/>
<path d="M734 2745 c-4 -14 -5 -81 -2 -148 6 -185 20 -197 223 -197 150 0 185
6 185 31 0 12 -7 19 -19 19 -11 0 -21 6 -23 13 -3 8 -42 14 -127 17 -93 4
-124 8 -131 20 -5 8 -10 68 -10 133 0 97 -3 117 -15 117 -8 0 -15 5 -15 10 0
6 -13 10 -30 10 -23 0 -31 -5 -36 -25z"/>
<path d="M1230 2585 c0 -206 -5 -193 69 -179 l31 7 0 129 c0 114 -3 136 -22
179 -19 41 -27 49 -50 49 l-28 0 0 -185z"/>
<path d="M1810 2585 c0 -206 -5 -193 69 -179 l31 7 0 129 c0 114 -3 136 -22
179 -19 41 -27 49 -50 49 l-28 0 0 -185z"/>
<path d="M2880 2585 c0 -206 -5 -193 69 -179 l31 7 0 141 c0 110 -3 147 -15
162 -8 10 -15 27 -15 37 0 13 -8 17 -35 17 l-35 0 0 -185z"/>
<path d="M3570 2730 c0 -5 -7 -10 -15 -10 -22 0 -22 -218 1 -261 20 -39 68
-59 141 -59 89 0 103 6 103 46 l0 34 -68 0 c-40 0 -73 5 -80 12 -8 8 -12 52
-12 130 l0 118 -35 0 c-19 0 -35 -4 -35 -10z"/>
<path d="M633 2510 c-13 -5 -23 -15 -23 -22 0 -10 -26 -12 -115 -9 -63 2 -131
0 -150 -3 -32 -6 -35 -10 -35 -42 l0 -35 194 3 c107 2 197 6 201 9 3 4 3 30
-1 58 -7 55 -19 62 -71 41z"/>
</g>
</svg>
